<svg width="24" height="24" viewBox="0 0 24 24" fill="none" xmlns="http://www.w3.org/2000/svg">
<rect width="24" height="24" rx="4.8" fill="#FFE9D6"/>
<path d="M8.19116 18V6.07202H11.6352C14.6592 6.07202 16.2048 7.19762 16.2048 9.38162C16.2048 10.7088 15.2808 11.6328 13.7352 11.8176V11.8512C15.6168 12.0192 16.7088 13.044 16.7088 14.6232C16.7088 16.824 15.1968 18 12.3072 18H8.19116ZM10.6608 15.7992H12.1896C13.4496 15.7992 14.1384 15.312 14.1384 14.4048C14.1384 13.4976 13.4664 13.0104 12.1896 13.0104H10.6608V15.7992ZM10.6608 10.86H11.7528C12.996 10.86 13.6344 10.4232 13.6344 9.56642C13.6344 8.72642 12.996 8.27282 11.7528 8.27282H10.6608V10.86Z" fill="black"/>
</svg>
