<svg width="24" height="24" fill="none" xmlns="http://www.w3.org/2000/svg"><path d="M1 6c0-3.314 1.686-5 5-5h12c3.314 0 5 1.686 5 5v12c0 3.314-1.686 5-5 5H6c-3.314 0-5-1.686-5-5V6Z" fill="#000"/><path d="M12.727 16.09h-2.069v-3.188h2.127c.407 0 .756.072 1.05.217.296.144.525.344.685.597.16.254.24.547.24.88 0 .452-.162.816-.486 1.09-.325.269-.84.403-1.547.403Z" fill="url(#a)"/><path d="M12.54 11.185h-1.882v-2.97h1.928c.563 0 .996.132 1.3.398.31.265.464.615.464 1.049 0 .316-.08.588-.24.814a1.54 1.54 0 0 1-.645.527c-.27.122-.578.182-.926.182Z" fill="url(#b)"/><path fill-rule="evenodd" clip-rule="evenodd" d="M3 0a3 3 0 0 0-3 3v18a3 3 0 0 0 3 3h18a3 3 0 0 0 3-3V3a3 3 0 0 0-3-3H3Zm5.121 6.164v12h5.127c.899 0 1.655-.145 2.268-.434.613-.289 1.076-.682 1.388-1.178a3.12 3.12 0 0 0 .475-1.705c0-.59-.125-1.097-.375-1.523a2.739 2.739 0 0 0-2.262-1.389v-.117a3.17 3.17 0 0 0 1.114-.475c.328-.226.586-.515.773-.867.188-.355.281-.767.281-1.236 0-.602-.148-1.133-.445-1.594-.297-.465-.74-.828-1.33-1.09-.59-.262-1.326-.392-2.209-.392H8.121Z" fill="url(#c)"/><defs><linearGradient id="a" x1=".9" y1="1.8" x2="24" y2="24" gradientUnits="userSpaceOnUse"><stop stop-color="#fff"/><stop offset="1" stop-color="#FFC799"/></linearGradient><linearGradient id="b" x1=".9" y1="1.8" x2="24" y2="24" gradientUnits="userSpaceOnUse"><stop stop-color="#fff"/><stop offset="1" stop-color="#FFC799"/></linearGradient><linearGradient id="c" x1=".9" y1="1.8" x2="24" y2="24" gradientUnits="userSpaceOnUse"><stop stop-color="#fff"/><stop offset="1" stop-color="#FFC799"/></linearGradient></defs></svg>
